<svg width="25" height="25" viewBox="0 0 25 25" fill="none" xmlns="http://www.w3.org/2000/svg">
<path d="M17.6667 17.9167L23.5 23.75M23.5 17.9167L17.6667 23.75M12.8056 23.75V17.5887C12.8056 17.351 12.8056 17.2321 12.7787 17.1202C12.7549 17.021 12.7156 16.9262 12.6623 16.8392C12.6022 16.7411 12.5181 16.657 12.3499 16.4889L6.45561 10.5945C6.28747 10.4264 6.20339 10.3423 6.14327 10.2442C6.08996 10.1572 6.05068 10.0623 6.02686 9.96314C6 9.85125 6 9.73235 6 9.49456V7.80556C6 7.26106 6 6.98881 6.10596 6.78084C6.19918 6.59791 6.34791 6.44918 6.53084 6.35596C6.73881 6.25 7.01106 6.25 7.55556 6.25H21.9444C22.489 6.25 22.7612 6.25 22.9692 6.35596C23.1521 6.44918 23.3008 6.59791 23.394 6.78084C23.5 6.98881 23.5 7.26106 23.5 7.80556V9.49456C23.5 9.73235 23.5 9.85125 23.4732 9.96314C23.4493 10.0623 23.4101 10.1572 23.3567 10.2442C23.2966 10.3423 23.2125 10.4264 23.0444 10.5945L19.6111 14.0278" stroke="#007bff" stroke-width="2.5" stroke-linecap="round" stroke-linejoin="round"/>
</svg>
