<svg width="40" height="40" viewBox="0 0 45 51" fill="none" xmlns="http://www.w3.org/2000/svg">
                                                <path
                                                    d="M26.1026 25.5451V25.9253V36.0814C26.1026 36.2837 25.9884 36.4687 25.8073 36.5592L19.6705 39.6276C19.5048 39.7104 19.3082 39.7016 19.1506 39.6042C18.9931 39.5067 18.8974 39.3349 18.8974 39.1498V25.9253V25.5451L18.6448 25.261L9.02847 14.4426L8.28106 15.1069L9.02847 14.4426C7.84275 13.1087 8.78968 11 10.5744 11H34.4256C36.2103 11 37.1572 13.1087 35.9715 14.4426M26.1026 25.5451L35.9715 14.4426M26.1026 25.5451L26.3552 25.261L35.9715 14.4426M26.1026 25.5451L36.719 15.1069L35.9715 14.4426"
                                                    stroke="#B3B3B3"
                                                    stroke-width="2"
                                                />
                                            </svg>