<svg width="31" height="32" viewBox="0 0 31 32" fill="none" xmlns="http://www.w3.org/2000/svg">
<path d="M8.03571 10.5721H6.67857C6.4986 10.5721 6.32601 10.5006 6.19875 10.3734C6.07149 10.2461 6 10.0735 6 9.89354C6 9.71357 6.07149 9.54098 6.19875 9.41372C6.32601 9.28646 6.4986 9.21497 6.67857 9.21497H12.1071V7.1779C12.1071 6.99793 12.1786 6.82533 12.3059 6.69808C12.4331 6.57082 12.6057 6.49933 12.7857 6.49933H18.2143C18.3943 6.49933 18.5669 6.57082 18.6941 6.69808C18.8214 6.82533 18.8929 6.99793 18.8929 7.1779V9.21497H24.3214C24.5014 9.21497 24.674 9.28646 24.8013 9.41372C24.9285 9.54098 25 9.71357 25 9.89354C25 10.0735 24.9285 10.2461 24.8013 10.3734C24.674 10.5006 24.5014 10.5721 24.3214 10.5721H22.9643V24.8221C22.9643 25.0021 22.8928 25.1747 22.7655 25.3019C22.6383 25.4292 22.4657 25.5007 22.2857 25.5007H8.71429C8.53432 25.5007 8.36172 25.4292 8.23446 25.3019C8.10721 25.1747 8.03571 25.0021 8.03571 24.8221V10.5721ZM17.5357 9.21497V7.85783H13.4643V9.21497H17.5357ZM9.39286 24.1435H21.6071V10.5721H9.39286V24.1435ZM13.4643 21.4293C13.2843 21.4293 13.1117 21.3578 12.9845 21.2305C12.8572 21.1033 12.7857 20.9307 12.7857 20.7507V13.965C12.7857 13.785 12.8572 13.6124 12.9845 13.4851C13.1117 13.3579 13.2843 13.2864 13.4643 13.2864C13.6443 13.2864 13.8169 13.3579 13.9441 13.4851C14.0714 13.6124 14.1429 13.785 14.1429 13.965V20.7507C14.1429 20.9307 14.0714 21.1033 13.9441 21.2305C13.8169 21.3578 13.6443 21.4293 13.4643 21.4293ZM17.5357 21.4293C17.3557 21.4293 17.1831 21.3578 17.0559 21.2305C16.9286 21.1033 16.8571 20.9307 16.8571 20.7507V13.965C16.8571 13.785 16.9286 13.6124 17.0559 13.4851C17.1831 13.3579 17.3557 13.2864 17.5357 13.2864C17.7157 13.2864 17.8883 13.3579 18.0155 13.4851C18.1428 13.6124 18.2143 13.785 18.2143 13.965V20.7507C18.2143 20.9307 18.1428 21.1033 18.0155 21.2305C17.8883 21.3578 17.7157 21.4293 17.5357 21.4293Z" stroke="#007bff" stroke-width="2.5" fill="#007bff"/>
</svg>
