<svg width="160" height="160" viewBox="0 0 160 160" fill="none" xmlns="http://www.w3.org/2000/svg">
<g style="mix-blend-mode:hard-light" clip-path="url(#clip0_2026_4529)">
<path d="M126.667 126.667C124.899 126.667 123.203 127.369 121.953 128.619C120.702 129.87 120 131.565 120 133.333C119.989 136.866 118.581 140.252 116.083 142.75C113.585 145.248 110.2 146.656 106.667 146.667H26.6667C23.1337 146.656 19.7484 145.248 17.2502 142.75C14.752 140.252 13.3439 136.866 13.3333 133.333V26.6667C13.3439 23.1337 14.752 19.7484 17.2502 17.2502C19.7484 14.752 23.1337 13.3439 26.6667 13.3333H106.667C110.203 13.3333 113.594 14.7381 116.095 17.2386C118.595 19.7391 120 23.1304 120 26.6667C120 28.4348 120.702 30.1305 121.953 31.3807C123.203 32.631 124.899 33.3333 126.667 33.3333C128.435 33.3333 130.13 32.631 131.381 31.3807C132.631 30.1305 133.333 28.4348 133.333 26.6667C133.333 19.5942 130.524 12.8115 125.523 7.81049C120.522 2.80952 113.739 0 106.667 0L26.6667 0C19.5942 0 12.8115 2.80952 7.81049 7.81049C2.80952 12.8115 0 19.5942 0 26.6667L0 133.333C0 140.406 2.80952 147.189 7.81049 152.19C12.8115 157.19 19.5942 160 26.6667 160H106.667C110.17 160.004 113.639 159.318 116.877 157.979C120.114 156.641 123.056 154.676 125.533 152.199C128.01 149.722 129.974 146.781 131.312 143.543C132.651 140.306 133.338 136.836 133.333 133.333C133.333 131.565 132.631 129.87 131.381 128.619C130.13 127.369 128.435 126.667 126.667 126.667Z" fill="#8D8D8D"/>
<path d="M33.3332 99.9993C37.0151 99.9993 39.9998 97.0146 39.9998 93.3327C39.9998 89.6508 37.0151 86.666 33.3332 86.666C29.6513 86.666 26.6665 89.6508 26.6665 93.3327C26.6665 97.0146 29.6513 99.9993 33.3332 99.9993Z" fill="#8D8D8D"/>
<path d="M33.3332 46.6673C37.0151 46.6673 39.9998 43.6825 39.9998 40.0007C39.9998 36.3188 37.0151 33.334 33.3332 33.334C29.6513 33.334 26.6665 36.3188 26.6665 40.0007C26.6665 43.6825 29.6513 46.6673 33.3332 46.6673Z" fill="#8D8D8D"/>
<path d="M33.3332 73.3333C37.0151 73.3333 39.9998 70.3486 39.9998 66.6667C39.9998 62.9848 37.0151 60 33.3332 60C29.6513 60 26.6665 62.9848 26.6665 66.6667C26.6665 70.3486 29.6513 73.3333 33.3332 73.3333Z" fill="#8D8D8D"/>
<path d="M33.4264 126.667C37.1083 126.667 40.0931 123.683 40.0931 120.001C40.0931 116.319 37.1083 113.334 33.4264 113.334C29.7445 113.334 26.7598 116.319 26.7598 120.001C26.7598 123.683 29.7445 126.667 33.4264 126.667Z" fill="#8D8D8D"/>
<path d="M105.014 126.667C106.565 126.372 107.965 125.544 108.972 124.327C109.979 123.11 110.53 121.58 110.53 120.001C110.53 118.421 109.979 116.891 108.972 115.674C107.965 114.457 106.565 113.63 105.014 113.334H58.9202C57.3745 113.637 55.982 114.467 54.981 115.683C53.98 116.899 53.4326 118.426 53.4326 120.001C53.4326 121.576 53.98 123.102 54.981 124.318C55.982 125.534 57.3745 126.365 58.9202 126.667H105.014Z" fill="#8D8D8D"/>
<path d="M157.067 115.266L138.2 96.3997C137.213 95.4049 136.023 94.6341 134.712 94.1395C133.401 93.6449 131.998 93.438 130.6 93.5331L123.667 86.5331C128.372 79.8053 130.675 71.6892 130.204 63.4928C129.734 55.2964 126.517 47.4972 121.073 41.3522C115.628 35.2071 108.274 31.0742 100.194 29.6194C92.1137 28.1646 83.7792 29.4728 76.5335 33.3331H59.2002C57.5434 33.4529 56 34.2189 54.9026 35.4659C53.8053 36.7129 53.2417 38.3412 53.3335 39.9998C53.2365 41.6607 53.7991 43.2927 54.8989 44.5411C55.9988 45.7895 57.5469 46.5533 59.2068 46.6664H62.3068C59.7631 50.8707 58.0984 55.5472 57.4135 60.4131C56.1805 60.92 55.1303 61.7892 54.4018 62.9058C53.6733 64.0223 53.3008 65.3336 53.3335 66.6664C53.2962 68.0453 53.6995 69.4003 54.4847 70.5344C55.27 71.6685 56.3963 72.5228 57.7002 72.9731C58.7292 77.903 60.77 82.5657 63.6935 86.6664H59.2068C57.5839 86.8721 56.0917 87.6628 55.0101 88.8901C53.9285 90.1174 53.3318 91.6972 53.3318 93.3331C53.3318 94.969 53.9285 96.5487 55.0101 97.7761C56.0917 99.0034 57.5839 99.7941 59.2068 99.9997H81.2068C86.6334 101.969 92.4486 102.627 98.1779 101.92C103.907 101.213 109.388 99.1618 114.173 95.9331L121.173 102.933C121.078 104.331 121.285 105.734 121.78 107.045C122.274 108.356 123.045 109.546 124.04 110.533L142.907 129.4C144.79 131.258 147.328 132.3 149.973 132.3C152.619 132.3 155.157 131.258 157.04 129.4C157.976 128.477 158.72 127.378 159.229 126.166C159.737 124.954 160.001 123.653 160.003 122.339C160.006 121.024 159.747 119.722 159.243 118.508C158.739 117.294 158 116.193 157.067 115.266ZM110.067 82.1331C105.68 86.4883 99.7486 88.9324 93.5668 88.9324C87.385 88.9324 81.4539 86.4883 77.0668 82.1331C76.3912 81.4705 75.7672 80.7573 75.2002 79.9997H95.4668C98.4319 79.9823 101.27 78.7966 103.367 76.7C105.464 74.6034 106.649 71.7648 106.667 68.7997V64.5331C106.649 61.5681 105.464 58.7294 103.367 56.6328C101.27 54.5362 98.4319 53.3506 95.4668 53.3331H73.7335C74.6735 51.8054 75.7925 50.3954 77.0668 49.1331C81.4429 44.757 87.3781 42.2986 93.5668 42.2986C99.7555 42.2986 105.691 44.757 110.067 49.1331C114.443 53.5092 116.901 59.4444 116.901 65.6331C116.901 71.8218 114.443 77.757 110.067 82.1331Z" fill="#8D8D8D"/>
</g>
<defs>
<clipPath id="clip0_2026_4529">
<rect width="160" height="160" fill="white"/>
</clipPath>
</defs>
</svg>
