<svg width="20" height="20" viewBox="0 0 20 20" fill="none" xmlns="http://www.w3.org/2000/svg">
<path d="M9.75 1.25H6C3.64298 1.25 2.46446 1.25 1.73224 1.98224C1 2.71446 1 3.89298 1 6.25V13.75C1 16.107 1 17.2855 1.73224 18.0177C2.46446 18.75 3.64298 18.75 6 18.75H13.5C15.857 18.75 17.0355 18.75 17.7677 18.0177C18.5 17.2855 18.5 16.107 18.5 13.75V10M6.39874 10.8639L13.8108 3.53504C14.402 2.95051 15.343 2.91828 15.9728 3.46095C16.6664 4.0586 16.7154 5.11624 16.08 5.77543L8.79112 13.3378L6 13.75L6.39874 10.8639Z" stroke="#007bff" stroke-width="1.5" stroke-linecap="round" stroke-linejoin="round"/>
</svg>
