<svg width="25" height="25" viewBox="0 0 25 25" fill="none" xmlns="http://www.w3.org/2000/svg">
<path d="M22.3425 25.5H8.65749C7.95268 25.5 7.27674 25.22 6.77836 24.7216C6.27998 24.2233 6 23.5473 6 22.8425V9.15749C6 8.45268 6.27998 7.77674 6.77836 7.27836C7.27674 6.77998 7.95268 6.5 8.65749 6.5H22.3425C23.0473 6.5 23.7233 6.77998 24.2216 7.27836C24.72 7.77674 25 8.45268 25 9.15749V22.8425C25 23.5473 24.72 24.2233 24.2216 24.7216C23.7233 25.22 23.0473 25.5 22.3425 25.5ZM8.65749 7.563C8.2346 7.563 7.82904 7.73099 7.53001 8.03001C7.23099 8.32904 7.063 8.73461 7.063 9.15749V22.8425C7.063 23.2654 7.23099 23.671 7.53001 23.97C7.82904 24.269 8.2346 24.437 8.65749 24.437H22.3425C22.7654 24.437 23.171 24.269 23.47 23.97C23.769 23.671 23.937 23.2654 23.937 22.8425V9.15749C23.937 8.73461 23.769 8.32904 23.47 8.03001C23.171 7.73099 22.7654 7.563 22.3425 7.563H8.65749Z" fill="#007bff" stroke="#007bff" stroke-width="0.5"/>
<path d="M9.70175 12.0488C9.56134 12.0464 9.42715 11.9905 9.32651 11.8926C9.22687 11.7929 9.1709 11.6577 9.1709 11.5168C9.1709 11.3759 9.22687 11.2407 9.32651 11.141C9.42689 11.0428 9.56134 10.9872 9.70175 10.9858H10.7711C10.9115 10.9877 11.0457 11.0432 11.1464 11.141C11.1959 11.1904 11.2352 11.249 11.262 11.3136C11.2888 11.3782 11.3026 11.4474 11.3026 11.5173C11.3026 11.6583 11.2466 11.7935 11.147 11.8932C11.0473 11.9928 10.9121 12.0488 10.7711 12.0488H9.70175Z" fill="#007bff" stroke="#007bff" stroke-width="0.5"/>
<path d="M9.70228 16.5315C9.56211 16.5289 9.42808 16.4735 9.32705 16.3763C9.27755 16.3269 9.23828 16.2683 9.21149 16.2037C9.18469 16.1391 9.1709 16.0699 9.1709 16C9.1709 15.9301 9.18469 15.8608 9.21149 15.7963C9.23828 15.7317 9.27755 15.673 9.32705 15.6237C9.42767 15.5258 9.56196 15.4703 9.70228 15.4685H10.7717C10.9119 15.4708 11.046 15.5263 11.1469 15.6237C11.1964 15.673 11.2357 15.7317 11.2625 15.7963C11.2893 15.8608 11.303 15.9301 11.303 16C11.303 16.0699 11.2893 16.1391 11.2625 16.2037C11.2357 16.2683 11.1964 16.3269 11.1469 16.3763C11.0463 16.4741 10.912 16.5296 10.7717 16.5315H9.70228Z" fill="#007bff" stroke="#007bff" stroke-width="0.5"/>
<path d="M9.70175 21.0172C9.56134 21.0148 9.42715 20.9589 9.32651 20.861C9.22687 20.7613 9.1709 20.6261 9.1709 20.4852C9.1709 20.3443 9.22687 20.2091 9.32651 20.1094C9.42713 20.0116 9.56142 19.956 9.70175 19.9542H10.7711C10.9115 19.956 11.0457 20.0116 11.1464 20.1094C11.1959 20.1588 11.2352 20.2174 11.262 20.282C11.2888 20.3466 11.3026 20.4158 11.3026 20.4857C11.3026 20.6267 11.2466 20.7619 11.147 20.8615C11.0473 20.9612 10.9121 21.0172 10.7711 21.0172H9.70175Z" fill="#007bff" stroke="#007bff" stroke-width="0.5"/>
<path d="M13.9641 12.0468C13.8232 12.0468 13.688 11.9908 13.5883 11.8911C13.4886 11.7914 13.4326 11.6563 13.4326 11.5153C13.4326 11.3743 13.4886 11.2391 13.5883 11.1395C13.688 11.0398 13.8232 10.9838 13.9641 10.9838H21.2988C21.4398 10.9838 21.5749 11.0398 21.6746 11.1395C21.7743 11.2391 21.8303 11.3743 21.8303 11.5153C21.8303 11.6563 21.7743 11.7914 21.6746 11.8911C21.5749 11.9908 21.4398 12.0468 21.2988 12.0468H13.9641Z" fill="#007bff" stroke="#007bff" stroke-width="0.5"/>
<path d="M13.9641 16.5315C13.8232 16.5315 13.688 16.4755 13.5883 16.3758C13.4886 16.2761 13.4326 16.1409 13.4326 16C13.4326 15.859 13.4886 15.7238 13.5883 15.6241C13.688 15.5245 13.8232 15.4685 13.9641 15.4685H21.2988C21.4398 15.4685 21.5749 15.5245 21.6746 15.6241C21.7743 15.7238 21.8303 15.859 21.8303 16C21.8303 16.1409 21.7743 16.2761 21.6746 16.3758C21.5749 16.4755 21.4398 16.5315 21.2988 16.5315H13.9641Z" fill="#007bff" stroke="#007bff" stroke-width="0.5"/>
<path d="M13.9641 21.0151C13.8232 21.0151 13.688 20.9591 13.5883 20.8595C13.4886 20.7598 13.4326 20.6246 13.4326 20.4836C13.4326 20.3427 13.4886 20.2075 13.5883 20.1078C13.688 20.0081 13.8232 19.9521 13.9641 19.9521H21.2988C21.4398 19.9521 21.5749 20.0081 21.6746 20.1078C21.7743 20.2075 21.8303 20.3427 21.8303 20.4836C21.8303 20.6246 21.7743 20.7598 21.6746 20.8595C21.5749 20.9591 21.4398 21.0151 21.2988 21.0151H13.9641Z" fill="#007bff" stroke="#007bff" stroke-width="0.5"/>
</svg>
