<svg width="60" height="61" viewBox="0 0 60 61" fill="none" xmlns="http://www.w3.org/2000/svg">
<path d="M56.6663 8.66716C56.6663 6.80033 56.665 5.8662 56.3017 5.15316C55.9823 4.52596 55.474 4.0164 54.847 3.6968C54.134 3.3335 53.1987 3.3335 51.3317 3.3335H8.66504C6.79821 3.3335 5.86571 3.3335 5.15267 3.6968C4.52547 4.0164 4.01591 4.52596 3.69631 5.15316C3.33301 5.8662 3.33301 6.80033 3.33301 8.66716V11.1247C3.33301 11.94 3.33301 12.3479 3.42511 12.7316C3.50677 13.0717 3.64177 13.3966 3.82454 13.6948C4.03061 14.0311 4.31937 14.3199 4.89551 14.896L21.7713 31.7718C22.3478 32.3482 22.6345 32.6348 22.8406 32.9715C23.0234 33.2695 23.1602 33.5955 23.2419 33.9358C23.333 34.3155 23.333 34.7185 23.333 35.5175V51.3702C23.333 54.2275 23.333 55.6572 23.9347 56.5175C24.4603 57.2688 25.271 57.7702 26.178 57.9042C27.2167 58.0575 28.4953 57.4192 31.051 56.1415L33.7177 54.8082C34.788 54.2732 35.3217 54.0045 35.7127 53.6052C36.0583 53.2522 36.323 52.8285 36.484 52.3615C36.6663 51.8332 36.6663 51.2335 36.6663 50.0368V35.5422C36.6663 34.7268 36.6663 34.3195 36.7583 33.9358C36.84 33.5955 36.975 33.2695 37.158 32.9715C37.3627 32.6372 37.6487 32.3512 38.2173 31.7825L38.229 31.7718L55.1047 14.896C55.681 14.3195 55.9677 14.0312 56.174 13.6948C56.3567 13.3966 56.4937 13.0717 56.5753 12.7316C56.6663 12.3519 56.6663 11.9483 56.6663 11.1495V8.66716Z" stroke="#708EB0" stroke-width="5" stroke-linecap="round" stroke-linejoin="round"/>
<path d="M56.6663 8.66716C56.6663 6.80033 56.665 5.8662 56.3017 5.15316C55.9823 4.52596 55.474 4.0164 54.847 3.6968C54.134 3.3335 53.1987 3.3335 51.3317 3.3335H8.66504C6.79821 3.3335 5.86571 3.3335 5.15267 3.6968C4.52547 4.0164 4.01591 4.52596 3.69631 5.15316C3.33301 5.8662 3.33301 6.80033 3.33301 8.66716V11.1247C3.33301 11.94 3.33301 12.3479 3.42511 12.7316C3.50677 13.0717 3.64177 13.3966 3.82454 13.6948C4.03061 14.0311 4.31937 14.3199 4.89551 14.896L21.7713 31.7718C22.3478 32.3482 22.6345 32.6348 22.8406 32.9715C23.0234 33.2695 23.1602 33.5955 23.2419 33.9358C23.333 34.3155 23.333 34.7185 23.333 35.5175V51.3702C23.333 54.2275 23.333 55.6572 23.9347 56.5175C24.4603 57.2688 25.271 57.7702 26.178 57.9042C27.2167 58.0575 28.4953 57.4192 31.051 56.1415L33.7177 54.8082C34.788 54.2732 35.3217 54.0045 35.7127 53.6052C36.0583 53.2522 36.323 52.8285 36.484 52.3615C36.6663 51.8332 36.6663 51.2335 36.6663 50.0368V35.5422C36.6663 34.7268 36.6663 34.3195 36.7583 33.9358C36.84 33.5955 36.975 33.2695 37.158 32.9715C37.3627 32.6372 37.6487 32.3512 38.2173 31.7825L38.229 31.7718L55.1047 14.896C55.681 14.3195 55.9677 14.0312 56.174 13.6948C56.3567 13.3966 56.4937 13.0717 56.5753 12.7316C56.6663 12.3519 56.6663 11.9483 56.6663 11.1495V8.66716Z" stroke="#006465" stroke-width="5" stroke-linecap="round" stroke-linejoin="round"/>
</svg>
