<svg width="32" height="32" viewBox="0 0 38 38" fill="none" xmlns="http://www.w3.org/2000/svg">
                                                <path fill-rule="evenodd" clip-rule="evenodd" d="M14.2643 3.16669V11.9056L4.96647 31.1136C4.34303 32.4016 4.88172 33.951 6.16968 34.5745C6.52161 34.7448 6.90754 34.8334 7.29853 34.8334H30.706C32.1369 34.8334 33.2969 33.6733 33.2969 32.2425C33.2969 31.8526 33.2089 31.4678 33.0396 31.1166L23.7716 11.9056V3.16669H14.2643Z" stroke="#B3B3B3" stroke-width="2" stroke-linejoin="round" />
                                                <path d="M8.67773 23.7498C10.3907 24.8109 12.1048 25.3415 13.82 25.3415C15.5353 25.3415 17.2518 24.8109 18.9695 23.7498C20.6702 22.6998 22.3783 22.1748 24.0935 22.1748C25.8088 22.1748 27.5314 22.6998 29.2611 23.7498" stroke="#B3B3B3" stroke-width="2" stroke-linecap="round" />
                                            </svg>