<svg width="40" height="40" viewBox="0 0 45 45" fill="none" xmlns="http://www.w3.org/2000/svg">
                                                <path
                                                    d="M10 11.5625C10 11.1481 10.1646 10.7507 10.4576 10.4576C10.7507 10.1646 11.1481 10 11.5625 10H17.8125C18.2269 10 18.6243 10.1646 18.9174 10.4576C19.2104 10.7507 19.375 11.1481 19.375 11.5625V19.375C19.375 19.7894 19.2104 20.1868 18.9174 20.4799C18.6243 20.7729 18.2269 20.9375 17.8125 20.9375H11.5625C11.1481 20.9375 10.7507 20.7729 10.4576 20.4799C10.1646 20.1868 10 19.7894 10 19.375V11.5625ZM25.625 11.5625C25.625 11.1481 25.7896 10.7507 26.0826 10.4576C26.3757 10.1646 26.7731 10 27.1875 10H33.4375C33.8519 10 34.2493 10.1646 34.5424 10.4576C34.8354 10.7507 35 11.1481 35 11.5625V14.6875C35 15.1019 34.8354 15.4993 34.5424 15.7924C34.2493 16.0854 33.8519 16.25 33.4375 16.25H27.1875C26.7731 16.25 26.3757 16.0854 26.0826 15.7924C25.7896 15.4993 25.625 15.1019 25.625 14.6875V11.5625ZM10 28.75C10 28.3356 10.1646 27.9382 10.4576 27.6451C10.7507 27.3521 11.1481 27.1875 11.5625 27.1875H17.8125C18.2269 27.1875 18.6243 27.3521 18.9174 27.6451C19.2104 27.9382 19.375 28.3356 19.375 28.75V33.4375C19.375 33.8519 19.2104 34.2493 18.9174 34.5424C18.6243 34.8354 18.2269 35 17.8125 35H11.5625C11.1481 35 10.7507 34.8354 10.4576 34.5424C10.1646 34.2493 10 33.8519 10 33.4375V28.75ZM25.625 24.0625C25.625 23.6481 25.7896 23.2507 26.0826 22.9576C26.3757 22.6646 26.7731 22.5 27.1875 22.5H33.4375C33.8519 22.5 34.2493 22.6646 34.5424 22.9576C34.8354 23.2507 35 23.6481 35 24.0625V33.4375C35 33.8519 34.8354 34.2493 34.5424 34.5424C34.2493 34.8354 33.8519 35 33.4375 35H27.1875C26.7731 35 26.3757 34.8354 26.0826 34.5424C25.7896 34.2493 25.625 33.8519 25.625 33.4375V24.0625Z"
                                                    stroke="#B3B3B3"
                                                    stroke-width="2"
                                                />
                                            </svg>