<svg width="66" height="60" viewBox="0 0 66 60" fill="none" xmlns="http://www.w3.org/2000/svg">
<path d="M33 24.6668V56.6668M33 24.6668C33 17.1995 33 13.4658 31.5467 10.6136C30.2683 8.1048 28.2287 6.06506 25.7199 4.78673C22.8677 3.3335 19.134 3.3335 11.6667 3.3335H8.33333C6.4665 3.3335 5.53307 3.3335 4.82003 3.6968C4.19283 4.0164 3.6829 4.52633 3.3633 5.15353C3 5.86656 3 6.8 3 8.66683V44.6668C3 46.5338 3 47.4672 3.3633 48.1802C3.6829 48.8075 4.19283 49.3172 4.82003 49.6368C5.53307 50.0002 6.4665 50.0002 8.33333 50.0002H18.1556C19.9562 50.0002 20.8565 50.0002 21.7271 50.1555C22.4998 50.2932 23.2537 50.5212 23.973 50.8355C24.7835 51.1892 25.5326 51.6885 27.0307 52.6875L33 56.6668M33 24.6668C33 17.1995 33 13.4658 34.4533 10.6136C35.7317 8.1048 37.7713 6.06506 40.28 4.78673C43.1323 3.3335 46.866 3.3335 54.3333 3.3335H57.6667C59.5337 3.3335 60.467 3.3335 61.18 3.6968C61.8073 4.0164 62.317 4.52633 62.6367 5.15353C63 5.86656 63 6.8 63 8.66683V44.6668C63 46.5338 63 47.4672 62.6367 48.1802C62.317 48.8075 61.8073 49.3172 61.18 49.6368C60.467 50.0002 59.5337 50.0002 57.6667 50.0002H47.8443C46.0437 50.0002 45.1433 50.0002 44.273 50.1555C43.5 50.2932 42.7463 50.5212 42.027 50.8355C41.2167 51.1892 40.4673 51.6885 38.9693 52.6875L33 56.6668" stroke="#708EB0" stroke-width="5" stroke-linecap="round" stroke-linejoin="round"/>
<path d="M33 24.6668V56.6668M33 24.6668C33 17.1995 33 13.4658 31.5467 10.6136C30.2683 8.1048 28.2287 6.06506 25.7199 4.78673C22.8677 3.3335 19.134 3.3335 11.6667 3.3335H8.33333C6.4665 3.3335 5.53307 3.3335 4.82003 3.6968C4.19283 4.0164 3.6829 4.52633 3.3633 5.15353C3 5.86656 3 6.8 3 8.66683V44.6668C3 46.5338 3 47.4672 3.3633 48.1802C3.6829 48.8075 4.19283 49.3172 4.82003 49.6368C5.53307 50.0002 6.4665 50.0002 8.33333 50.0002H18.1556C19.9562 50.0002 20.8565 50.0002 21.7271 50.1555C22.4998 50.2932 23.2537 50.5212 23.973 50.8355C24.7835 51.1892 25.5326 51.6885 27.0307 52.6875L33 56.6668M33 24.6668C33 17.1995 33 13.4658 34.4533 10.6136C35.7317 8.1048 37.7713 6.06506 40.28 4.78673C43.1323 3.3335 46.866 3.3335 54.3333 3.3335H57.6667C59.5337 3.3335 60.467 3.3335 61.18 3.6968C61.8073 4.0164 62.317 4.52633 62.6367 5.15353C63 5.86656 63 6.8 63 8.66683V44.6668C63 46.5338 63 47.4672 62.6367 48.1802C62.317 48.8075 61.8073 49.3172 61.18 49.6368C60.467 50.0002 59.5337 50.0002 57.6667 50.0002H47.8443C46.0437 50.0002 45.1433 50.0002 44.273 50.1555C43.5 50.2932 42.7463 50.5212 42.027 50.8355C41.2167 51.1892 40.4673 51.6885 38.9693 52.6875L33 56.6668" stroke="#006465" stroke-width="5" stroke-linecap="round" stroke-linejoin="round"/>
</svg>